<mxfile host="Electron" modified="2023-06-07T15:04:55.862Z" agent="Mozilla/5.0 (Windows NT 10.0; Win64; x64) AppleWebKit/537.36 (KHTML, like Gecko) draw.io/21.2.8 Chrome/112.0.5615.165 Electron/24.2.0 Safari/537.36" etag="P3koFH6_7_Xzi996IjWH" version="21.2.8" type="device">
  <diagram name="Page-1" id="0783ab3e-0a74-02c8-0abd-f7b4e66b4bec">
    <mxGraphModel dx="1182" dy="690" grid="1" gridSize="10" guides="1" tooltips="1" connect="1" arrows="1" fold="1" page="1" pageScale="1" pageWidth="827" pageHeight="1169" background="none" math="0" shadow="0">
      <root>
        <mxCell id="0" />
        <mxCell id="1" parent="0" />
        <mxCell id="1c1d494c118603dd-2" value="&lt;font color=&quot;#516a8f&quot;&gt;動作者&lt;/font&gt;" style="swimlane;html=1;startSize=20;fillColor=#dae8fc;strokeColor=#516A8F;" parent="1" vertex="1">
          <mxGeometry x="180" y="80" width="250" height="860" as="geometry" />
        </mxCell>
        <mxCell id="CdWKcS6R5QREeGc17HmZ-15" value="&lt;font color=&quot;#516a8f&quot;&gt;點選忘記密碼&lt;/font&gt;" style="rounded=1;whiteSpace=wrap;html=1;shadow=0;comic=0;labelBackgroundColor=none;strokeWidth=1;fontFamily=Verdana;fontSize=12;align=center;arcSize=15;fillColor=#dae8fc;strokeColor=#516A8F;glass=0;" parent="1c1d494c118603dd-2" vertex="1">
          <mxGeometry x="75" y="90" width="100" height="30" as="geometry" />
        </mxCell>
        <mxCell id="IhGvfdnm3YL9H9vA17aL-2" value="&lt;font color=&quot;#516a8f&quot;&gt;輸入E-mail&lt;/font&gt;" style="rounded=1;whiteSpace=wrap;html=1;shadow=0;comic=0;labelBackgroundColor=none;strokeWidth=1;fontFamily=Verdana;fontSize=12;align=center;arcSize=15;fillColor=#dae8fc;strokeColor=#516A8F;glass=0;" parent="1c1d494c118603dd-2" vertex="1">
          <mxGeometry x="75" y="220" width="100" height="30" as="geometry" />
        </mxCell>
        <mxCell id="ehFKd2KFmxwJPBwTbD4K-28" value="" style="rhombus;whiteSpace=wrap;html=1;fillColor=#dae8fc;strokeColor=#516A8F;" vertex="1" parent="1c1d494c118603dd-2">
          <mxGeometry x="200" y="225" width="20" height="20" as="geometry" />
        </mxCell>
        <mxCell id="ehFKd2KFmxwJPBwTbD4K-31" style="edgeStyle=none;rounded=0;html=1;labelBackgroundColor=none;startArrow=none;startFill=0;startSize=5;endArrow=classic;endFill=1;endSize=5;jettySize=auto;orthogonalLoop=1;strokeWidth=1;fontFamily=Verdana;fontSize=12;exitX=0;exitY=0.5;exitDx=0;exitDy=0;strokeColor=#516A8F;arcSize=20;entryX=1;entryY=0.5;entryDx=0;entryDy=0;" edge="1" parent="1c1d494c118603dd-2" source="ehFKd2KFmxwJPBwTbD4K-28" target="IhGvfdnm3YL9H9vA17aL-2">
          <mxGeometry relative="1" as="geometry">
            <mxPoint x="335" y="220" as="sourcePoint" />
            <mxPoint x="185" y="220" as="targetPoint" />
          </mxGeometry>
        </mxCell>
        <mxCell id="ehFKd2KFmxwJPBwTbD4K-33" value="&lt;font color=&quot;#516a8f&quot;&gt;點擊&lt;br&gt;信箱中的連結&lt;/font&gt;" style="rounded=1;whiteSpace=wrap;html=1;shadow=0;comic=0;labelBackgroundColor=none;strokeWidth=1;fontFamily=Verdana;fontSize=12;align=center;arcSize=15;fillColor=#dae8fc;strokeColor=#516A8F;glass=0;" vertex="1" parent="1c1d494c118603dd-2">
          <mxGeometry x="74" y="440" width="100" height="40" as="geometry" />
        </mxCell>
        <mxCell id="ehFKd2KFmxwJPBwTbD4K-36" value="&lt;font color=&quot;#516a8f&quot;&gt;輸入新密碼&lt;/font&gt;" style="rounded=1;whiteSpace=wrap;html=1;shadow=0;comic=0;labelBackgroundColor=none;strokeWidth=1;fontFamily=Verdana;fontSize=12;align=center;arcSize=15;fillColor=#dae8fc;strokeColor=#516A8F;glass=0;" vertex="1" parent="1c1d494c118603dd-2">
          <mxGeometry x="74" y="590" width="100" height="30" as="geometry" />
        </mxCell>
        <mxCell id="ehFKd2KFmxwJPBwTbD4K-48" value="&lt;p style=&quot;line-height: 130%;&quot;&gt;&lt;font color=&quot;#516a8f&quot;&gt;密碼須經由SHA256運算後，再做儲存。&lt;/font&gt;&lt;/p&gt;" style="shape=note;whiteSpace=wrap;html=1;backgroundOutline=1;darkOpacity=0.05;size=12;fillColor=#dae8fc;strokeColor=#516A8F;align=left;labelPadding=0;noLabel=0;" vertex="1" parent="1c1d494c118603dd-2">
          <mxGeometry x="65" y="700" width="135" height="60" as="geometry" />
        </mxCell>
        <mxCell id="1c1d494c118603dd-3" value="&lt;font color=&quot;#516a8f&quot;&gt;系統&lt;/font&gt;" style="swimlane;html=1;startSize=20;fillColor=#dae8fc;strokeColor=#516A8F;" parent="1" vertex="1">
          <mxGeometry x="430" y="80" width="250" height="860" as="geometry" />
        </mxCell>
        <mxCell id="60571a20871a0731-4" value="" style="ellipse;whiteSpace=wrap;html=1;rounded=0;shadow=0;comic=0;labelBackgroundColor=none;strokeWidth=1;fillColor=#d5e8d4;fontFamily=Verdana;fontSize=12;align=center;strokeColor=#82b366;" parent="1c1d494c118603dd-3" vertex="1">
          <mxGeometry x="110" y="40" width="30" height="30" as="geometry" />
        </mxCell>
        <mxCell id="CdWKcS6R5QREeGc17HmZ-11" value="&lt;font color=&quot;#516a8f&quot;&gt;顯示登入畫面&lt;/font&gt;" style="rounded=1;whiteSpace=wrap;html=1;shadow=0;comic=0;labelBackgroundColor=none;strokeWidth=1;fontFamily=Verdana;fontSize=12;align=center;arcSize=15;fillColor=#dae8fc;strokeColor=#516A8F;glass=0;" parent="1c1d494c118603dd-3" vertex="1">
          <mxGeometry x="75" y="90" width="100" height="30" as="geometry" />
        </mxCell>
        <mxCell id="1c1d494c118603dd-39" style="edgeStyle=none;rounded=0;html=1;labelBackgroundColor=none;startArrow=none;startFill=0;startSize=5;endArrow=classic;endFill=1;endSize=5;jettySize=auto;orthogonalLoop=1;strokeWidth=1;fontFamily=Verdana;fontSize=12;exitX=0.5;exitY=1;exitDx=0;exitDy=0;strokeColor=#516A8F;arcSize=20;entryX=0.5;entryY=0;entryDx=0;entryDy=0;" parent="1c1d494c118603dd-3" source="60571a20871a0731-4" target="CdWKcS6R5QREeGc17HmZ-11" edge="1">
          <mxGeometry relative="1" as="geometry">
            <mxPoint x="-160.44999999999982" y="259.9999999999998" as="sourcePoint" />
          </mxGeometry>
        </mxCell>
        <mxCell id="CdWKcS6R5QREeGc17HmZ-17" value="&lt;font color=&quot;#516a8f&quot;&gt;顯示忘記&lt;br&gt;密碼畫面&lt;/font&gt;" style="rounded=1;whiteSpace=wrap;html=1;shadow=0;comic=0;labelBackgroundColor=none;strokeWidth=1;fontFamily=Verdana;fontSize=12;align=center;arcSize=15;fillColor=#dae8fc;strokeColor=#516A8F;glass=0;" parent="1c1d494c118603dd-3" vertex="1">
          <mxGeometry x="75" y="160" width="100" height="40" as="geometry" />
        </mxCell>
        <mxCell id="ehFKd2KFmxwJPBwTbD4K-8" value="&lt;font color=&quot;#516a8f&quot;&gt;驗證E-mail&lt;br&gt;是否存在&lt;br&gt;&lt;/font&gt;" style="rounded=1;whiteSpace=wrap;html=1;shadow=0;comic=0;labelBackgroundColor=none;strokeWidth=1;fontFamily=Verdana;fontSize=12;align=center;arcSize=15;fillColor=#dae8fc;strokeColor=#516A8F;glass=0;" vertex="1" parent="1c1d494c118603dd-3">
          <mxGeometry x="75" y="275" width="100" height="40" as="geometry" />
        </mxCell>
        <mxCell id="ehFKd2KFmxwJPBwTbD4K-10" value="" style="rhombus;whiteSpace=wrap;html=1;fillColor=#fff2cc;strokeColor=#d6b656;" vertex="1" parent="1c1d494c118603dd-3">
          <mxGeometry x="105" y="350" width="40" height="40" as="geometry" />
        </mxCell>
        <mxCell id="ehFKd2KFmxwJPBwTbD4K-11" style="edgeStyle=none;rounded=0;html=1;labelBackgroundColor=none;startArrow=none;startFill=0;startSize=5;endArrow=classic;endFill=1;endSize=5;jettySize=auto;orthogonalLoop=1;strokeWidth=1;fontFamily=Verdana;fontSize=12;exitX=0.5;exitY=1;exitDx=0;exitDy=0;strokeColor=#82b366;arcSize=20;fillColor=#d5e8d4;entryX=0.5;entryY=0;entryDx=0;entryDy=0;" edge="1" parent="1c1d494c118603dd-3" source="ehFKd2KFmxwJPBwTbD4K-10" target="t5bb0kTeRHAlqyquHPTp-3">
          <mxGeometry relative="1" as="geometry">
            <mxPoint x="119.71000000000004" y="490" as="sourcePoint" />
            <mxPoint x="125" y="440" as="targetPoint" />
          </mxGeometry>
        </mxCell>
        <mxCell id="ehFKd2KFmxwJPBwTbD4K-12" value="&lt;font color=&quot;#82b366&quot;&gt;驗證成功&lt;/font&gt;" style="edgeLabel;html=1;align=center;verticalAlign=middle;resizable=0;points=[];" vertex="1" connectable="0" parent="ehFKd2KFmxwJPBwTbD4K-11">
          <mxGeometry x="-0.05" y="24" relative="1" as="geometry">
            <mxPoint as="offset" />
          </mxGeometry>
        </mxCell>
        <mxCell id="ehFKd2KFmxwJPBwTbD4K-15" style="edgeStyle=none;rounded=0;html=1;labelBackgroundColor=none;startArrow=none;startFill=0;startSize=5;endArrow=classic;endFill=1;endSize=5;jettySize=auto;orthogonalLoop=1;strokeWidth=1;fontFamily=Verdana;fontSize=12;exitX=0.5;exitY=1;exitDx=0;exitDy=0;strokeColor=#516A8F;arcSize=20;entryX=0.5;entryY=0;entryDx=0;entryDy=0;" edge="1" parent="1c1d494c118603dd-3" source="ehFKd2KFmxwJPBwTbD4K-8" target="ehFKd2KFmxwJPBwTbD4K-10">
          <mxGeometry relative="1" as="geometry">
            <mxPoint x="124.75999999999999" y="320" as="sourcePoint" />
            <mxPoint x="124.75999999999999" y="340" as="targetPoint" />
          </mxGeometry>
        </mxCell>
        <mxCell id="CdWKcS6R5QREeGc17HmZ-10" value="" style="group" parent="1c1d494c118603dd-3" vertex="1" connectable="0">
          <mxGeometry x="109" y="800" width="32" height="32" as="geometry" />
        </mxCell>
        <mxCell id="CdWKcS6R5QREeGc17HmZ-8" value="" style="ellipse;whiteSpace=wrap;html=1;aspect=fixed;fillColor=#b85450;strokeColor=#f8cecc;" parent="CdWKcS6R5QREeGc17HmZ-10" vertex="1">
          <mxGeometry x="1" y="1" width="30" height="30" as="geometry" />
        </mxCell>
        <mxCell id="CdWKcS6R5QREeGc17HmZ-9" value="" style="ellipse;whiteSpace=wrap;html=1;aspect=fixed;fillColor=none;strokeColor=#B85450;" parent="CdWKcS6R5QREeGc17HmZ-10" vertex="1">
          <mxGeometry width="32" height="32" as="geometry" />
        </mxCell>
        <mxCell id="t5bb0kTeRHAlqyquHPTp-3" value="&lt;font color=&quot;#516a8f&quot;&gt;傳送更改密碼&lt;br&gt;信件至該信箱&lt;br&gt;&lt;/font&gt;" style="rounded=1;whiteSpace=wrap;html=1;shadow=0;comic=0;labelBackgroundColor=none;strokeWidth=1;fontFamily=Verdana;fontSize=12;align=center;arcSize=15;fillColor=#dae8fc;strokeColor=#516A8F;glass=0;" parent="1c1d494c118603dd-3" vertex="1">
          <mxGeometry x="72.5" y="440" width="105" height="40" as="geometry" />
        </mxCell>
        <mxCell id="IhGvfdnm3YL9H9vA17aL-11" value="&lt;font color=&quot;#516a8f&quot;&gt;顯示&lt;br&gt;更改密碼畫面&lt;/font&gt;" style="rounded=1;whiteSpace=wrap;html=1;shadow=0;comic=0;labelBackgroundColor=none;strokeWidth=1;fontFamily=Verdana;fontSize=12;align=center;arcSize=15;fillColor=#dae8fc;strokeColor=#516A8F;glass=0;" parent="1c1d494c118603dd-3" vertex="1">
          <mxGeometry x="75" y="520" width="100" height="40" as="geometry" />
        </mxCell>
        <mxCell id="ehFKd2KFmxwJPBwTbD4K-43" value="&lt;font color=&quot;#516a8f&quot;&gt;將更新的密碼&lt;br&gt;儲存於資料庫&lt;br&gt;&lt;/font&gt;" style="rounded=1;whiteSpace=wrap;html=1;shadow=0;comic=0;labelBackgroundColor=none;strokeWidth=1;fontFamily=Verdana;fontSize=12;align=center;arcSize=15;fillColor=#dae8fc;strokeColor=#516A8F;glass=0;" vertex="1" parent="1c1d494c118603dd-3">
          <mxGeometry x="75" y="640" width="100" height="40" as="geometry" />
        </mxCell>
        <mxCell id="ehFKd2KFmxwJPBwTbD4K-45" value="&lt;font color=&quot;#516a8f&quot;&gt;自動登入&lt;br&gt;顯示首頁&lt;br&gt;&lt;/font&gt;" style="rounded=1;whiteSpace=wrap;html=1;shadow=0;comic=0;labelBackgroundColor=none;strokeWidth=1;fontFamily=Verdana;fontSize=12;align=center;arcSize=15;fillColor=#dae8fc;strokeColor=#516A8F;glass=0;" vertex="1" parent="1c1d494c118603dd-3">
          <mxGeometry x="75" y="720" width="100" height="40" as="geometry" />
        </mxCell>
        <mxCell id="ehFKd2KFmxwJPBwTbD4K-46" style="edgeStyle=none;rounded=0;html=1;labelBackgroundColor=none;startArrow=none;startFill=0;startSize=5;endArrow=classic;endFill=1;endSize=5;jettySize=auto;orthogonalLoop=1;strokeWidth=1;fontFamily=Verdana;fontSize=12;exitX=0.5;exitY=1;exitDx=0;exitDy=0;strokeColor=#516A8F;arcSize=20;entryX=0.5;entryY=0;entryDx=0;entryDy=0;" edge="1" parent="1c1d494c118603dd-3" source="ehFKd2KFmxwJPBwTbD4K-43" target="ehFKd2KFmxwJPBwTbD4K-45">
          <mxGeometry relative="1" as="geometry">
            <mxPoint x="124.71" y="685" as="sourcePoint" />
            <mxPoint x="124.71" y="720" as="targetPoint" />
          </mxGeometry>
        </mxCell>
        <mxCell id="ehFKd2KFmxwJPBwTbD4K-47" style="edgeStyle=none;rounded=0;html=1;labelBackgroundColor=none;startArrow=none;startFill=0;startSize=5;endArrow=classic;endFill=1;endSize=5;jettySize=auto;orthogonalLoop=1;strokeWidth=1;fontFamily=Verdana;fontSize=12;exitX=0.5;exitY=1;exitDx=0;exitDy=0;strokeColor=#516A8F;arcSize=20;entryX=0.5;entryY=0;entryDx=0;entryDy=0;" edge="1" parent="1c1d494c118603dd-3" source="ehFKd2KFmxwJPBwTbD4K-45" target="CdWKcS6R5QREeGc17HmZ-9">
          <mxGeometry relative="1" as="geometry">
            <mxPoint x="124.71000000000001" y="760" as="sourcePoint" />
            <mxPoint x="124.71000000000001" y="800" as="targetPoint" />
          </mxGeometry>
        </mxCell>
        <mxCell id="CdWKcS6R5QREeGc17HmZ-38" style="edgeStyle=none;rounded=0;html=1;labelBackgroundColor=none;startArrow=none;startFill=0;startSize=5;endArrow=classic;endFill=1;endSize=5;jettySize=auto;orthogonalLoop=1;strokeWidth=1;fontFamily=Verdana;fontSize=12;exitX=0;exitY=0.5;exitDx=0;exitDy=0;strokeColor=#516A8F;arcSize=20;" parent="1" source="CdWKcS6R5QREeGc17HmZ-11" target="CdWKcS6R5QREeGc17HmZ-15" edge="1">
          <mxGeometry relative="1" as="geometry">
            <mxPoint x="365" y="225" as="sourcePoint" />
            <mxPoint x="525" y="225" as="targetPoint" />
          </mxGeometry>
        </mxCell>
        <mxCell id="CdWKcS6R5QREeGc17HmZ-18" style="edgeStyle=none;rounded=1;html=1;labelBackgroundColor=none;startArrow=none;startFill=0;startSize=5;endArrow=classic;endFill=1;endSize=5;jettySize=auto;orthogonalLoop=1;strokeWidth=1;fontFamily=Verdana;fontSize=12;exitX=0.5;exitY=1;exitDx=0;exitDy=0;strokeColor=#516A8F;arcSize=15;entryX=0;entryY=0.5;entryDx=0;entryDy=0;" parent="1" source="CdWKcS6R5QREeGc17HmZ-15" target="CdWKcS6R5QREeGc17HmZ-17" edge="1">
          <mxGeometry relative="1" as="geometry">
            <mxPoint x="304.65999999999997" y="350" as="sourcePoint" />
            <mxPoint x="304.65999999999997" y="400" as="targetPoint" />
            <Array as="points">
              <mxPoint x="305" y="260" />
            </Array>
          </mxGeometry>
        </mxCell>
        <mxCell id="CdWKcS6R5QREeGc17HmZ-16" style="edgeStyle=none;rounded=1;html=1;labelBackgroundColor=none;startArrow=none;startFill=0;startSize=5;endArrow=classic;endFill=1;endSize=5;jettySize=auto;orthogonalLoop=1;strokeWidth=1;fontFamily=Verdana;fontSize=12;strokeColor=#516A8F;arcSize=15;entryX=1;entryY=0.5;entryDx=0;entryDy=0;exitX=0.5;exitY=1;exitDx=0;exitDy=0;" parent="1" source="CdWKcS6R5QREeGc17HmZ-17" target="ehFKd2KFmxwJPBwTbD4K-28" edge="1">
          <mxGeometry relative="1" as="geometry">
            <mxPoint x="360" y="335" as="sourcePoint" />
            <mxPoint x="560" y="310" as="targetPoint" />
            <Array as="points">
              <mxPoint x="555" y="315" />
            </Array>
          </mxGeometry>
        </mxCell>
        <mxCell id="ehFKd2KFmxwJPBwTbD4K-9" style="edgeStyle=none;rounded=1;html=1;labelBackgroundColor=none;startArrow=none;startFill=0;startSize=5;endArrow=classic;endFill=1;endSize=5;jettySize=auto;orthogonalLoop=1;strokeWidth=1;fontFamily=Verdana;fontSize=12;strokeColor=#516A8F;arcSize=15;entryX=0;entryY=0.5;entryDx=0;entryDy=0;exitX=0.5;exitY=1;exitDx=0;exitDy=0;" edge="1" parent="1" source="IhGvfdnm3YL9H9vA17aL-2" target="ehFKd2KFmxwJPBwTbD4K-8">
          <mxGeometry relative="1" as="geometry">
            <mxPoint x="488" y="350" as="sourcePoint" />
            <mxPoint x="288" y="385" as="targetPoint" />
            <Array as="points">
              <mxPoint x="305" y="375" />
            </Array>
          </mxGeometry>
        </mxCell>
        <mxCell id="ehFKd2KFmxwJPBwTbD4K-13" style="edgeStyle=none;rounded=1;html=1;labelBackgroundColor=none;startArrow=none;startFill=0;startSize=5;endArrow=classic;endFill=1;endSize=5;jettySize=auto;orthogonalLoop=1;strokeWidth=1;fontFamily=Verdana;fontSize=12;exitX=0;exitY=0.5;exitDx=0;exitDy=0;strokeColor=#b85450;arcSize=15;fillColor=#f8cecc;entryX=0.5;entryY=1;entryDx=0;entryDy=0;" edge="1" parent="1" source="ehFKd2KFmxwJPBwTbD4K-10" target="ehFKd2KFmxwJPBwTbD4K-28">
          <mxGeometry relative="1" as="geometry">
            <mxPoint x="570" y="590" as="sourcePoint" />
            <mxPoint x="390" y="350" as="targetPoint" />
            <Array as="points">
              <mxPoint x="390" y="450" />
            </Array>
          </mxGeometry>
        </mxCell>
        <mxCell id="ehFKd2KFmxwJPBwTbD4K-14" value="&lt;font color=&quot;#b85450&quot;&gt;驗證失敗&lt;/font&gt;" style="edgeLabel;html=1;align=center;verticalAlign=middle;resizable=0;points=[];" vertex="1" connectable="0" parent="ehFKd2KFmxwJPBwTbD4K-13">
          <mxGeometry x="-0.81" y="-9" relative="1" as="geometry">
            <mxPoint as="offset" />
          </mxGeometry>
        </mxCell>
        <mxCell id="IhGvfdnm3YL9H9vA17aL-18" style="edgeStyle=none;rounded=0;html=1;labelBackgroundColor=none;startArrow=none;startFill=0;startSize=5;endArrow=classic;endFill=1;endSize=5;jettySize=auto;orthogonalLoop=1;strokeWidth=1;fontFamily=Verdana;fontSize=12;exitX=0;exitY=0.5;exitDx=0;exitDy=0;strokeColor=#516A8F;arcSize=20;entryX=1;entryY=0.5;entryDx=0;entryDy=0;" parent="1" edge="1" target="ehFKd2KFmxwJPBwTbD4K-33" source="t5bb0kTeRHAlqyquHPTp-3">
          <mxGeometry relative="1" as="geometry">
            <mxPoint x="552" y="580" as="sourcePoint" />
            <mxPoint x="552" y="620" as="targetPoint" />
          </mxGeometry>
        </mxCell>
        <mxCell id="ehFKd2KFmxwJPBwTbD4K-35" style="edgeStyle=none;rounded=1;html=1;labelBackgroundColor=none;startArrow=none;startFill=0;startSize=5;endArrow=classic;endFill=1;endSize=5;jettySize=auto;orthogonalLoop=1;strokeWidth=1;fontFamily=Verdana;fontSize=12;strokeColor=#516A8F;arcSize=15;entryX=0;entryY=0.5;entryDx=0;entryDy=0;exitX=0.5;exitY=1;exitDx=0;exitDy=0;" edge="1" parent="1" source="ehFKd2KFmxwJPBwTbD4K-33" target="IhGvfdnm3YL9H9vA17aL-11">
          <mxGeometry relative="1" as="geometry">
            <mxPoint x="300" y="590" as="sourcePoint" />
            <mxPoint x="500" y="635" as="targetPoint" />
            <Array as="points">
              <mxPoint x="304" y="620" />
            </Array>
          </mxGeometry>
        </mxCell>
        <mxCell id="ehFKd2KFmxwJPBwTbD4K-38" style="edgeStyle=none;rounded=1;html=1;labelBackgroundColor=none;startArrow=none;startFill=0;startSize=5;endArrow=classic;endFill=1;endSize=5;jettySize=auto;orthogonalLoop=1;strokeWidth=1;fontFamily=Verdana;fontSize=12;strokeColor=#516A8F;arcSize=15;entryX=1;entryY=0.5;entryDx=0;entryDy=0;exitX=0.5;exitY=1;exitDx=0;exitDy=0;" edge="1" parent="1" source="IhGvfdnm3YL9H9vA17aL-11" target="ehFKd2KFmxwJPBwTbD4K-36">
          <mxGeometry relative="1" as="geometry">
            <mxPoint x="470" y="650" as="sourcePoint" />
            <mxPoint x="671" y="720" as="targetPoint" />
            <Array as="points">
              <mxPoint x="555" y="685" />
            </Array>
          </mxGeometry>
        </mxCell>
        <mxCell id="ehFKd2KFmxwJPBwTbD4K-44" style="edgeStyle=none;rounded=1;html=1;labelBackgroundColor=none;startArrow=none;startFill=0;startSize=5;endArrow=classic;endFill=1;endSize=5;jettySize=auto;orthogonalLoop=1;strokeWidth=1;fontFamily=Verdana;fontSize=12;strokeColor=#516A8F;arcSize=15;entryX=0;entryY=0.5;entryDx=0;entryDy=0;exitX=0.5;exitY=1;exitDx=0;exitDy=0;" edge="1" parent="1" source="ehFKd2KFmxwJPBwTbD4K-36" target="ehFKd2KFmxwJPBwTbD4K-43">
          <mxGeometry relative="1" as="geometry">
            <mxPoint x="300" y="700" as="sourcePoint" />
            <mxPoint x="501" y="770" as="targetPoint" />
            <Array as="points">
              <mxPoint x="304" y="740" />
            </Array>
          </mxGeometry>
        </mxCell>
        <mxCell id="ehFKd2KFmxwJPBwTbD4K-49" style="rounded=0;orthogonalLoop=1;jettySize=auto;html=1;entryX=0;entryY=1;entryDx=0;entryDy=0;strokeColor=#516A8F;endArrow=none;endFill=0;dashed=1;strokeWidth=1;exitX=0;exitY=0;exitDx=135;exitDy=36;exitPerimeter=0;" edge="1" parent="1" source="ehFKd2KFmxwJPBwTbD4K-48" target="ehFKd2KFmxwJPBwTbD4K-43">
          <mxGeometry relative="1" as="geometry">
            <mxPoint x="507.5" y="845" as="targetPoint" />
          </mxGeometry>
        </mxCell>
      </root>
    </mxGraphModel>
  </diagram>
</mxfile>
